<svg id="Capa_1" enable-background="new 0 0 512 512" height="512" viewBox="0 0 512 512" width="512" xmlns="http://www.w3.org/2000/svg"><g><path d="m477.03 192.841c5.318-13.907 6.435-29.254 2.965-43.945-4.102-17.368-14-32.267-28.25-42.79.1-20.048-7.716-39.189-22.164-53.637-14.39-14.389-33.401-22.214-53.324-22.214-.13 0-.262 0-.393.001-14.067-18.869-36.229-30.256-59.864-30.256-24.508 0-46.305 11.818-60 30.052-13.695-18.234-35.492-30.052-60-30.052-23.635 0-45.797 11.387-59.864 30.256-20.105-.082-39.234 7.73-53.717 22.213-14.448 14.448-22.263 33.588-22.164 53.637-14.25 10.523-24.148 25.421-28.25 42.79-3.47 14.691-2.354 30.038 2.965 43.945-21.423 13.527-34.97 37.232-34.97 63.159s13.546 49.632 34.97 63.159c-5.318 13.907-6.435 29.253-2.966 43.942 4.102 17.366 13.996 32.262 28.241 42.785-.126 18.369 6.36 35.816 18.733 49.94 14.572 16.634 35.355 26.174 57.022 26.174.11 0 .219 0 .327-.001 14.076 18.717 36.145 30.001 59.673 30.001 24.508 0 46.305-11.818 60-30.052 13.695 18.234 35.492 30.052 60 30.052 23.528 0 45.597-11.284 59.673-30.001.108.001.217.001.327.001 21.667 0 42.45-9.54 57.022-26.174 12.373-14.124 18.859-31.57 18.733-49.94 14.245-10.523 24.139-25.419 28.241-42.785 3.469-14.689 2.353-30.035-2.966-43.942 21.424-13.527 34.97-37.232 34.97-63.159s-13.547-49.632-34.97-63.159zm-236.03-41.841h-30v-30h-30v60h60v60h-90v-30h-30v90h30v-30h90v75h-60v60h30v-30h30v61c0 24.813-20.187 45-45 45-16.054 0-31.011-8.869-39.033-23.145l-4.978-8.859c-15.762 2.128-15.124 2.004-15.989 2.004-13.022 0-25.581-5.811-34.457-15.943-8.765-10.005-12.628-22.781-10.877-35.974l1.337-10.073-8.858-4.978c-11.253-6.323-19.047-16.562-21.944-28.828-2.869-12.144-.499-25.042 6.501-35.385l10.918-16.132-18.386-6.434c-18.084-6.326-30.234-23.307-30.234-42.253s12.15-35.927 30.234-42.255l18.385-6.434-10.917-16.131c-7-10.343-9.369-23.241-6.5-35.388 2.897-12.265 10.69-22.501 21.943-28.825l8.858-4.978-1.337-10.073c-1.882-14.176 2.845-28.112 12.966-38.234 10.154-10.154 24.108-14.898 38.284-13.017l10.073 1.337 4.978-8.858c8.022-14.276 22.979-23.144 39.033-23.144 24.813 0 45 20.187 45 45zm210.767 147.255-18.386 6.434 10.918 16.132c7 10.343 9.37 23.24 6.501 35.385-2.897 12.267-10.69 22.505-21.944 28.828l-8.858 4.978 1.337 10.073c1.751 13.192-2.112 25.968-10.877 35.974-8.877 10.13-21.436 15.941-34.458 15.941-1.055 0-.834.042-15.989-2.004l-4.978 8.859c-8.022 14.276-22.979 23.145-39.033 23.145-24.813 0-45-20.187-45-45v-61h30v30h30v-60h-60v-75h90v30h30v-90h-30v30h-90v-60h60v-60h-30v30h-30v-76c0-24.813 20.187-45 45-45 16.054 0 31.011 8.868 39.033 23.145l4.978 8.858 10.073-1.337c14.174-1.882 28.13 2.863 38.284 13.017 10.122 10.122 14.848 24.058 12.966 38.234l-1.337 10.073 8.858 4.978c11.253 6.323 19.046 16.56 21.943 28.825 2.869 12.147.5 25.045-6.5 35.388l-10.917 16.132 18.385 6.434c18.084 6.326 30.234 23.307 30.234 42.253s-12.15 35.927-30.233 42.255z"/></g></svg>