<?xml version="1.0"?>
<svg xmlns="http://www.w3.org/2000/svg" id="Outline" viewBox="0 0 512 512" width="512" height="512"><path d="M488,448a8,8,0,0,0-8,8v8H48V32h8a8,8,0,0,0,0-16H24a8,8,0,0,0,0,16h8V472a8,8,0,0,0,8,8H480v8a8,8,0,0,0,16,0V456A8,8,0,0,0,488,448Z"/><path d="M64,152a8,8,0,0,0,7.987,8h0c36.346,0,58.742,25.859,82.452,53.237,1.751,2.021,3.539,4.079,5.338,6.138C149.154,248.979,136.586,272,120,272h-8V216a8,8,0,0,0-8-8H72a8,8,0,0,0-8,8V440a8,8,0,0,0,8,8H456a8,8,0,0,0,8-8V152a8,8,0,0,0-8-8H424a8,8,0,0,0-8,8v24H392a8,8,0,0,0-8,8v88h-8.01c-20.152,0-34.373-33.985-46.379-72.474.8-1.384,1.594-2.767,2.4-4.164,13.885-24.147,28.241-49.115,47.755-68.122C401.344,106.219,426.282,96,456,96a8,8,0,0,0,0-16c-34.1,0-62.685,11.7-87.4,35.778-18.6,18.122-32.4,40.43-45.293,62.649-1.224-4.232-2.431-8.455-3.624-12.631-7.955-27.845-16.181-56.638-26.466-78.237C280.542,60.939,265.751,48,248,48s-32.546,12.94-45.223,39.561c-10.286,21.6-18.513,50.395-26.469,78.241-3.4,11.9-6.908,24.174-10.632,35.969C140.924,173.2,115.151,144.01,72.009,144h-.022A8,8,0,0,0,64,152Zm16,72H96V432H80Zm32,112h16v96H112Zm64-40h16V432H176Zm64-168h16V432H240ZM384,432H368V400h16Zm-32,0H336V344h16Zm-32,0H304V320h16Zm-32,0H272V288h16Zm-64,0H208V368h16Zm-64,0H144V400h16ZM432,160h16V432H432Zm-32,32h16V432H400ZM191.692,170.2C205.915,120.419,222.034,64,248,64s42.077,56.416,56.3,106.191c7.956,27.848,16.183,56.643,26.469,78.246C343.443,275.059,358.235,288,375.99,288H384v96H368V336a8,8,0,0,0-8-8H336V312a8,8,0,0,0-8-8H304V280a8,8,0,0,0-8-8H272V120a8,8,0,0,0-8-8H232a8,8,0,0,0-8,8V352H208V288a8,8,0,0,0-8-8H168a8,8,0,0,0-8,8v96H144V328a8,8,0,0,0-8-8H112V288h8c17.754,0,32.546-12.94,45.223-39.561C175.509,226.838,183.736,198.044,191.692,170.2Z"/></svg>
